<?xml version="1.0" standalone="no"?>
<!DOCTYPE svg PUBLIC "-//W3C//DTD SVG 20010904//EN"
 "http://www.w3.org/TR/2001/REC-SVG-20010904/DTD/svg10.dtd">
<svg version="1.0" xmlns="http://www.w3.org/2000/svg"
 width="176.000000pt" height="208.000000pt" viewBox="0 0 176.000000 208.000000"
 preserveAspectRatio="xMidYMid meet">

<g transform="translate(0.000000,208.000000) scale(0.100000,-0.100000)"
fill="#000000" stroke="none">
<path d="M822 1640 l-70 -60 -256 0 -256 0 -10 -22 c-5 -13 -25 -107 -45 -209
l-35 -186 2 -339 3 -339 372 -8 c205 -4 541 -4 745 0 l373 8 3 340 2 340 -40
198 c-22 109 -42 202 -45 208 -4 5 -112 9 -262 9 l-255 0 -70 60 c-38 33 -73
60 -78 60 -5 0 -40 -27 -78 -60z m215 -97 l137 -118 -137 -3 c-75 -1 -199 -1
-274 0 l-137 3 135 117 c74 64 135 117 137 117 2 1 64 -52 139 -116z m-362
-30 c-130 -112 -144 -133 -85 -133 46 0 70 -49 70 -144 l0 -76 -236 0 -235 0
5 43 c4 40 15 94 52 265 l15 72 222 0 222 -1 -30 -26z m865 25 c0 -2 16 -82
35 -178 19 -96 35 -180 35 -187 0 -10 -51 -13 -235 -13 l-235 0 0 76 c0 95 24
144 70 144 48 0 46 20 -6 65 -27 23 -62 54 -79 68 l-30 26 223 1 c122 0 222
-1 222 -2z m-412 -180 c-15 -23 -19 -23 -228 -23 -209 0 -213 0 -227 23 l-15
22 242 0 242 0 -14 -22z m-28 -403 l0 -335 -40 0 -40 0 -2 213 -3 212 -115 0
-115 0 -3 -212 -2 -213 -40 0 -40 0 0 335 0 335 200 0 200 0 0 -335z m-440
-80 l0 -255 -240 0 -240 0 0 255 0 255 240 0 240 0 0 -255z m960 0 l0 -255
-240 0 -240 0 0 255 0 255 240 0 240 0 0 -255z m-630 -60 l0 -195 -90 0 -90 0
0 195 0 195 90 0 90 0 0 -195z m-380 -265 l0 -30 -215 0 -215 0 0 30 0 30 215
0 215 0 0 -30z m540 -10 l0 -40 -250 0 -250 0 0 40 0 40 250 0 250 0 0 -40z
m470 10 l0 -30 -215 0 -215 0 0 30 0 30 215 0 215 0 0 -30z"/>
</g>
</svg>
